/* XPM */
static char *_648908cf48a4e688ba593f6b516f982vqQVx1xG3ra2kp3k[] = {
/* columns rows colors chars-per-pixel */
"32 32 6 1 ",
"  c None",
". c #25131A",
"X c #3D253B",
"o c #523B40",
"O c #895A45",
"+ c #BF704D",
/* pixels */
" .+++XX.                .+++XX. ",
" .+++XX.                .+++XX. ",
" .+++XX..................+++XX. ",
".O+++XOOO+++++++++++++++O+++XOO.",
".O+++XOOO+++++++++++++++O+++XOO.",
" .+++XX..................+++XX. ",
" .+++XX.                .+++XX. ",
" .+++XX.                .+++XX. ",
" .+++XX.                .+++XX. ",
" .+++XX.                .+++XX. ",
" .+++XX.......      .....+++XX. ",
".O+++XOOO++++.   ...++++O+++XOO.",
".O+++XOOO++++.  .+++++++O+++XOO.",
" .+++XX.......  .++++....+++XX. ",
" .+++XX.        .....   .+++XX. ",
" .+++XX.                .+++XX. ",
" .+++XX.                .+++XX. ",
" .+++XX.                .+++XX. ",
" .+++XX..................+++XX. ",
".O+++XOOO+++++++++++++++O+++XOO.",
".O+++XOOO+++++++++++++++O+++XOO.",
" .+++XX..................+++XX. ",
" .OOOXX.                .OOOXX. ",
".ooooXXX.              .ooooXXX.",
".ooooXXX.              .ooooXXX.",
".ooooXXX.              .ooooXXX.",
".ooooXXX....           .ooooXXX.",
".ooooXOOOO++.....      .ooooXOO.",
".ooooXOOOO+++++++....  .ooooXOO.",
".ooooXXX...++++++++++. .ooooXXX.",
".ooooXXX.  .....+++++. .ooooXXX.",
".ooooXXX.       ...... .ooooXXX."
};
