/* XPM */
static char *_42151e9eafe46ded8100eea6fc4c9fczospG08SowUXFg5U[] = {
/* columns rows colors chars-per-pixel */
"46 45 22 1 ",
"  c None",
". c black",
"X c #12191B",
"o c #1B323E",
"O c #401A22",
"+ c #412433",
"@ c #5B303D",
"# c #272744",
"$ c #353D5F",
"% c #005652",
"& c #007E4B",
"* c #90352F",
"= c #E9761E",
"- c #C3502A",
"; c #A24C57",
": c #D56A62",
"> c #FFB06D",
", c #FFEF7D",
"< c #3A6887",
"1 c #65709C",
"2 c #FFC3A1",
"3 c #A3A9C4",
/* pixels */
"                                              ",
"                                              ",
"                   .......                    ",
"                ...,,,,,,,..                  ",
"               .,,,>>>>>,>,,.                 ",
"              .,>>>,>>>>>,>>,.                ",
"             .,>>>>>,>>>>,>>>,.               ",
"            .::>>>>>,.....>>>,.               ",
"            ..;:::...222$2..>>,.              ",
"           .,,..;.22$$$2$222.>,.              ",
"           .>>,,.2..$22$2222..,.              ",
"          .:>>>.2.:>..2$22..>>.,.             ",
"          .:>>>.2...>,.22.:,...,.             ",
"          .;:>.22$2$...22...22.>.             ",
"           .::.2$2.2$22:.222.2.>..            ",
"           .:;.:$2.2$22:.222.2.>.=.           ",
"           .;.:.2$2$222:.22222..-=.           ",
"            .:>.:222.......222.*--=.          ",
"             .:>.:..>>>>,,,..2.**-==.         ",
"         .....;:>.>>>>>>>>,,,..**--=.         ",
"        .2222.::>>>>>>>>>>>,,,.O**--=.        ",
"       .222222.:>:>>>....>>>,,.O***--=.       ",
"       .222222.;::>>>>::>>>>,,.O****-=.       ",
"       .222222.;:;>>>>>>>>>>,.*.O****-=.      ",
"       .2222:22.;.:>:>>>>>>>,.*.O*****-.      ",
"       .222:;22.;.;::>>:>>>,.**.OO**OOO.      ",
"       .22..:222..;:.:>:>.>,.***..OO...       ",
"      .*.. .:22222.;.:::>.,.***O. ..O.        ",
"      .*O. .::22222..;:::..***O.. .O*.        ",
"      .*O. .;:2222222.;:.***OO.&. .O*.        ",
"  ... .-*. .2;;:22......**OO..%&. .*-.        ",
" .***..-*.. ......*....**...oo%&. .*-.        ",
"  ...*.-*.*........1<<<..ooooo%&. .*-.        ",
"     ..-*..*******.$11<.oooooo%&. .*-.        ",
"       ..  ........#$1<.oooooo%&.  ..         ",
"           .%ooooo.#$1<.oooooo%&.             ",
"           .%oooooo.$1<.oooooo%&.             ",
"           .%oooooo.$1.Xoooooo%&.             ",
"           .%oooooo.$1..Xooooo%&.             ",
"           .%ooooX.#$<. .Xooo%%&.             ",
"          .3..%o..#$1<.  .Xoo%&&.             ",
"          .3$#..##$11<.   .o%....             ",
"           .3$##$$1111<.. .X.@@@.             ",
"           .33111111111<<. .+@@@.             ",
"           ...33311111111.  .+@.              "
};
